<svg xmlns="http://www.w3.org/2000/svg" xmlns:xlink="http://www.w3.org/1999/xlink" width="500" zoomAndPan="magnify" viewBox="0 0 375 374.999991" height="500" preserveAspectRatio="xMidYMid meet" version="1.0"><defs><g/><clipPath id="cabbc67d39"><path d="M 50 167 L 95 167 L 95 212 L 50 212 Z M 50 167 " clip-rule="nonzero"/></clipPath><clipPath id="e0bbcff6bd"><path d="M 49.660156 168.550781 L 93.484375 165.960938 L 96.070312 209.785156 L 52.25 212.375 Z M 49.660156 168.550781 " clip-rule="nonzero"/></clipPath><clipPath id="699ead838b"><path d="M 49.660156 168.550781 L 93.484375 165.960938 L 96.070312 209.785156 L 52.25 212.375 Z M 49.660156 168.550781 " clip-rule="nonzero"/></clipPath><clipPath id="e7cd1228fc"><path d="M 49.660156 168.550781 L 93.484375 165.960938 L 96.070312 209.785156 L 52.25 212.375 Z M 49.660156 168.550781 " clip-rule="nonzero"/></clipPath><clipPath id="89b991e021"><path d="M 33 162 L 112 162 L 112 217 L 33 217 Z M 33 162 " clip-rule="nonzero"/></clipPath><clipPath id="71d8e98320"><path d="M 86.640625 147.914062 L 111.933594 170.382812 L 58.433594 230.601562 L 33.144531 208.132812 Z M 86.640625 147.914062 " clip-rule="nonzero"/></clipPath><clipPath id="1dc9cf10e5"><path d="M 86.640625 147.914062 L 111.933594 170.382812 L 58.433594 230.601562 L 33.144531 208.132812 Z M 86.640625 147.914062 " clip-rule="nonzero"/></clipPath><clipPath id="b9b1e7f481"><path d="M 35 162 L 111 162 L 111 218 L 35 218 Z M 35 162 " clip-rule="nonzero"/></clipPath><clipPath id="81245f9d45"><path d="M 29.519531 194.476562 L 39.25 162.074219 L 116.394531 185.238281 L 106.667969 217.640625 Z M 29.519531 194.476562 " clip-rule="nonzero"/></clipPath><clipPath id="4d27692222"><path d="M 29.519531 194.476562 L 39.25 162.074219 L 116.394531 185.238281 L 106.667969 217.640625 Z M 29.519531 194.476562 " clip-rule="nonzero"/></clipPath><clipPath id="041ea6baea"><path d="M 58 183 L 68 183 L 68 198 L 58 198 Z M 58 183 " clip-rule="nonzero"/></clipPath><clipPath id="fbaf28027c"><path d="M 57.722656 180.539062 L 87.074219 178.804688 L 88.285156 199.308594 L 58.933594 201.042969 Z M 57.722656 180.539062 " clip-rule="nonzero"/></clipPath><clipPath id="acbc2b7c80"><path d="M 57.722656 180.539062 L 87.074219 178.804688 L 88.285156 199.308594 L 58.933594 201.042969 Z M 57.722656 180.539062 " clip-rule="nonzero"/></clipPath><clipPath id="cf925d88a5"><path d="M 57.722656 180.539062 L 87.074219 178.804688 L 88.285156 199.308594 L 58.933594 201.042969 Z M 57.722656 180.539062 " clip-rule="nonzero"/></clipPath><clipPath id="7bee8004f5"><path d="M 78 182 L 88 182 L 88 197 L 78 197 Z M 78 182 " clip-rule="nonzero"/></clipPath><clipPath id="a906a456de"><path d="M 57.722656 180.539062 L 87.074219 178.804688 L 88.285156 199.308594 L 58.933594 201.042969 Z M 57.722656 180.539062 " clip-rule="nonzero"/></clipPath><clipPath id="27d8983402"><path d="M 57.722656 180.539062 L 87.074219 178.804688 L 88.285156 199.308594 L 58.933594 201.042969 Z M 57.722656 180.539062 " clip-rule="nonzero"/></clipPath><clipPath id="2d8709dccb"><path d="M 57.722656 180.539062 L 87.074219 178.804688 L 88.285156 199.308594 L 58.933594 201.042969 Z M 57.722656 180.539062 " clip-rule="nonzero"/></clipPath><clipPath id="ea5cd0dbab"><path d="M 69 179 L 77 179 L 77 201 L 69 201 Z M 69 179 " clip-rule="nonzero"/></clipPath><clipPath id="624dc5f793"><path d="M 57.722656 180.539062 L 87.074219 178.804688 L 88.285156 199.308594 L 58.933594 201.042969 Z M 57.722656 180.539062 " clip-rule="nonzero"/></clipPath><clipPath id="9631a0c824"><path d="M 57.722656 180.539062 L 87.074219 178.804688 L 88.285156 199.308594 L 58.933594 201.042969 Z M 57.722656 180.539062 " clip-rule="nonzero"/></clipPath><clipPath id="1e16388dd5"><path d="M 57.722656 180.539062 L 87.074219 178.804688 L 88.285156 199.308594 L 58.933594 201.042969 Z M 57.722656 180.539062 " clip-rule="nonzero"/></clipPath></defs><g clip-path="url(#cabbc67d39)"><g clip-path="url(#e0bbcff6bd)"><g clip-path="url(#699ead838b)"><g clip-path="url(#e7cd1228fc)"><path fill="#ffffff" d="M 94.777344 187.875 C 94.820312 188.589844 94.828125 189.308594 94.796875 190.027344 C 94.769531 190.746094 94.707031 191.460938 94.609375 192.171875 C 94.511719 192.886719 94.378906 193.589844 94.210938 194.289062 C 94.042969 194.988281 93.839844 195.679688 93.605469 196.359375 C 93.371094 197.035156 93.101562 197.703125 92.800781 198.355469 C 92.5 199.007812 92.167969 199.644531 91.804688 200.265625 C 91.441406 200.886719 91.046875 201.488281 90.625 202.066406 C 90.203125 202.648438 89.753906 203.210938 89.273438 203.746094 C 88.796875 204.285156 88.292969 204.796875 87.765625 205.285156 C 87.238281 205.773438 86.6875 206.234375 86.117188 206.667969 C 85.542969 207.101562 84.949219 207.507812 84.335938 207.882812 C 83.722656 208.257812 83.09375 208.601562 82.445312 208.917969 C 81.800781 209.230469 81.140625 209.511719 80.464844 209.761719 C 79.789062 210.007812 79.105469 210.226562 78.410156 210.40625 C 77.714844 210.585938 77.011719 210.734375 76.300781 210.847656 C 75.589844 210.960938 74.878906 211.039062 74.160156 211.078125 C 73.441406 211.121094 72.726562 211.128906 72.007812 211.101562 C 71.289062 211.074219 70.574219 211.007812 69.859375 210.910156 C 69.148438 210.8125 68.441406 210.679688 67.742188 210.511719 C 67.046875 210.34375 66.355469 210.144531 65.675781 209.90625 C 64.996094 209.671875 64.332031 209.402344 63.679688 209.101562 C 63.027344 208.800781 62.390625 208.46875 61.769531 208.105469 C 61.148438 207.742188 60.546875 207.351562 59.964844 206.925781 C 59.382812 206.503906 58.824219 206.054688 58.289062 205.578125 C 57.75 205.101562 57.238281 204.597656 56.75 204.070312 C 56.261719 203.542969 55.800781 202.992188 55.367188 202.417969 C 54.933594 201.84375 54.527344 201.25 54.152344 200.640625 C 53.777344 200.027344 53.429688 199.394531 53.117188 198.75 C 52.804688 198.101562 52.523438 197.441406 52.273438 196.769531 C 52.023438 196.09375 51.808594 195.410156 51.628906 194.710938 C 51.445312 194.015625 51.300781 193.3125 51.1875 192.605469 C 51.074219 191.894531 50.996094 191.179688 50.953125 190.464844 C 50.910156 189.746094 50.90625 189.027344 50.933594 188.308594 C 50.960938 187.589844 51.023438 186.875 51.121094 186.164062 C 51.222656 185.453125 51.355469 184.746094 51.523438 184.046875 C 51.691406 183.347656 51.890625 182.660156 52.128906 181.980469 C 52.363281 181.300781 52.628906 180.632812 52.929688 179.980469 C 53.234375 179.328125 53.566406 178.691406 53.929688 178.070312 C 54.292969 177.453125 54.683594 176.851562 55.105469 176.269531 C 55.53125 175.6875 55.980469 175.128906 56.457031 174.589844 C 56.933594 174.050781 57.4375 173.539062 57.964844 173.050781 C 58.492188 172.5625 59.042969 172.101562 59.617188 171.667969 C 60.1875 171.234375 60.78125 170.832031 61.394531 170.453125 C 62.007812 170.078125 62.636719 169.734375 63.285156 169.421875 C 63.929688 169.105469 64.59375 168.824219 65.265625 168.578125 C 65.941406 168.328125 66.625 168.113281 67.320312 167.929688 C 68.015625 167.75 68.71875 167.601562 69.429688 167.488281 C 70.140625 167.378906 70.855469 167.300781 71.570312 167.257812 C 72.289062 167.214844 73.007812 167.207031 73.726562 167.234375 C 74.445312 167.265625 75.160156 167.328125 75.871094 167.425781 C 76.582031 167.523438 77.289062 167.65625 77.988281 167.824219 C 78.6875 167.992188 79.375 168.195312 80.054688 168.429688 C 80.734375 168.664062 81.398438 168.933594 82.054688 169.234375 C 82.707031 169.535156 83.34375 169.867188 83.960938 170.230469 C 84.582031 170.59375 85.183594 170.988281 85.765625 171.410156 C 86.347656 171.832031 86.90625 172.28125 87.445312 172.757812 C 87.980469 173.238281 88.496094 173.738281 88.980469 174.265625 C 89.46875 174.796875 89.929688 175.347656 90.367188 175.917969 C 90.800781 176.492188 91.203125 177.085938 91.578125 177.699219 C 91.957031 178.3125 92.300781 178.941406 92.613281 179.585938 C 92.925781 180.234375 93.210938 180.894531 93.457031 181.570312 C 93.707031 182.242188 93.921875 182.929688 94.105469 183.625 C 94.285156 184.320312 94.433594 185.023438 94.542969 185.734375 C 94.65625 186.441406 94.734375 187.15625 94.777344 187.875 Z M 94.777344 187.875 " fill-opacity="1" fill-rule="nonzero"/></g></g></g></g><g clip-path="url(#89b991e021)"><g clip-path="url(#71d8e98320)"><g clip-path="url(#1dc9cf10e5)"><path fill="#ffffff" d="M 111.832031 170.335938 L 42.160156 216.132812 L 33.152344 208.132812 L 102.824219 162.335938 Z M 111.832031 170.335938 " fill-opacity="1" fill-rule="nonzero"/></g></g></g><g clip-path="url(#b9b1e7f481)"><g clip-path="url(#81245f9d45)"><g clip-path="url(#4d27692222)"><path fill="#ffffff" d="M 39.25 162.183594 L 110.128906 206.09375 L 106.664062 217.632812 L 35.785156 173.726562 Z M 39.25 162.183594 " fill-opacity="1" fill-rule="nonzero"/></g></g></g><g clip-path="url(#041ea6baea)"><g clip-path="url(#fbaf28027c)"><g clip-path="url(#acbc2b7c80)"><g clip-path="url(#cf925d88a5)"><path fill="#000000" d="M 66.203125 197.714844 C 65.769531 197.738281 65.472656 197.613281 65.167969 197.339844 L 59.039062 191.90625 C 58.425781 191.363281 58.375 190.496094 58.917969 189.886719 L 64.363281 183.769531 C 64.910156 183.15625 65.777344 183.105469 66.390625 183.648438 C 67.003906 184.191406 67.054688 185.058594 66.507812 185.667969 L 62.015625 190.71875 L 67.074219 195.199219 C 67.683594 195.742188 67.738281 196.609375 67.191406 197.222656 C 66.917969 197.527344 66.640625 197.6875 66.203125 197.714844 Z M 66.203125 197.714844 " fill-opacity="1" fill-rule="nonzero"/></g></g></g></g><g clip-path="url(#7bee8004f5)"><g clip-path="url(#a906a456de)"><g clip-path="url(#27d8983402)"><g clip-path="url(#2d8709dccb)"><path fill="#000000" d="M 80.671875 196.859375 C 80.238281 196.886719 79.941406 196.757812 79.632812 196.488281 C 79.019531 195.941406 78.96875 195.078125 79.515625 194.464844 L 84.007812 189.417969 L 78.953125 184.933594 C 78.339844 184.390625 78.289062 183.523438 78.832031 182.914062 C 79.375 182.300781 80.246094 182.25 80.859375 182.792969 L 86.984375 188.226562 C 87.597656 188.769531 87.648438 189.636719 87.105469 190.25 L 81.660156 196.367188 C 81.386719 196.671875 81.105469 196.835938 80.671875 196.859375 Z M 80.671875 196.859375 " fill-opacity="1" fill-rule="nonzero"/></g></g></g></g><g clip-path="url(#ea5cd0dbab)"><g clip-path="url(#624dc5f793)"><g clip-path="url(#9631a0c824)"><g clip-path="url(#1e16388dd5)"><path fill="#000000" d="M 70.714844 200.347656 C 70.570312 200.355469 70.425781 200.363281 70.273438 200.226562 C 69.53125 199.980469 69.054688 199.285156 69.292969 198.402344 L 74.058594 180.730469 C 74.304688 179.992188 75 179.515625 75.886719 179.753906 C 76.628906 180 77.105469 180.695312 76.867188 181.582031 L 72.101562 199.25 C 71.847656 199.84375 71.292969 200.3125 70.714844 200.347656 Z M 70.714844 200.347656 " fill-opacity="1" fill-rule="nonzero"/></g></g></g></g><g fill="#ffffff" fill-opacity="1"><g transform="translate(111.741712, 198.356583)"><g><path d="M 2.34375 0 L 2.34375 -22.1875 L 5 -22.1875 L 16.828125 -4.40625 L 16.828125 -22.1875 L 19.484375 -22.1875 L 19.484375 0 L 16.828125 0 L 5 -17.78125 L 5 0 Z M 2.34375 0 "/></g></g></g><g fill="#ffffff" fill-opacity="1"><g transform="translate(138.477529, 198.356583)"><g><path d="M 0.953125 0 L 9.125 -22.1875 L 11.953125 -22.1875 L 20.09375 0 L 17.265625 0 L 15.234375 -5.703125 L 5.796875 -5.703125 L 3.734375 0 Z M 6.59375 -7.859375 L 14.453125 -7.859375 L 10.515625 -18.828125 Z M 6.59375 -7.859375 "/></g></g></g><g fill="#ffffff" fill-opacity="1"><g transform="translate(164.421505, 198.356583)"><g><path d="M 9.40625 0.375 C 7.78125 0.375 6.363281 0.0820312 5.15625 -0.5 C 3.957031 -1.09375 3.03125 -1.914062 2.375 -2.96875 C 1.71875 -4.03125 1.390625 -5.257812 1.390625 -6.65625 L 4.1875 -6.65625 C 4.1875 -5.789062 4.382812 -4.992188 4.78125 -4.265625 C 5.1875 -3.535156 5.773438 -2.953125 6.546875 -2.515625 C 7.316406 -2.085938 8.269531 -1.875 9.40625 -1.875 C 10.90625 -1.875 12.066406 -2.234375 12.890625 -2.953125 C 13.710938 -3.671875 14.125 -4.566406 14.125 -5.640625 C 14.125 -6.523438 13.929688 -7.238281 13.546875 -7.78125 C 13.171875 -8.320312 12.660156 -8.757812 12.015625 -9.09375 C 11.378906 -9.425781 10.644531 -9.71875 9.8125 -9.96875 C 8.976562 -10.226562 8.101562 -10.519531 7.1875 -10.84375 C 5.476562 -11.425781 4.210938 -12.15625 3.390625 -13.03125 C 2.566406 -13.914062 2.15625 -15.066406 2.15625 -16.484375 C 2.132812 -17.660156 2.40625 -18.707031 2.96875 -19.625 C 3.539062 -20.550781 4.347656 -21.269531 5.390625 -21.78125 C 6.441406 -22.300781 7.6875 -22.5625 9.125 -22.5625 C 10.539062 -22.5625 11.769531 -22.296875 12.8125 -21.765625 C 13.863281 -21.242188 14.675781 -20.515625 15.25 -19.578125 C 15.832031 -18.648438 16.132812 -17.597656 16.15625 -16.421875 L 13.375 -16.421875 C 13.375 -17.023438 13.210938 -17.628906 12.890625 -18.234375 C 12.578125 -18.835938 12.097656 -19.328125 11.453125 -19.703125 C 10.804688 -20.085938 10 -20.28125 9.03125 -20.28125 C 7.820312 -20.300781 6.832031 -19.992188 6.0625 -19.359375 C 5.289062 -18.722656 4.90625 -17.847656 4.90625 -16.734375 C 4.90625 -15.785156 5.175781 -15.054688 5.71875 -14.546875 C 6.257812 -14.035156 7.015625 -13.613281 7.984375 -13.28125 C 8.953125 -12.957031 10.070312 -12.585938 11.34375 -12.171875 C 12.394531 -11.785156 13.34375 -11.335938 14.1875 -10.828125 C 15.039062 -10.328125 15.703125 -9.675781 16.171875 -8.875 C 16.648438 -8.070312 16.890625 -7.046875 16.890625 -5.796875 C 16.890625 -4.742188 16.613281 -3.742188 16.0625 -2.796875 C 15.507812 -1.859375 14.679688 -1.09375 13.578125 -0.5 C 12.472656 0.0820312 11.082031 0.375 9.40625 0.375 Z M 9.40625 0.375 "/></g></g></g><g fill="#ffffff" fill-opacity="1"><g transform="translate(187.641525, 198.356583)"><g/></g></g><g fill="#ffffff" fill-opacity="1"><g transform="translate(200.947641, 198.356583)"><g><path d="M 2.34375 0 L 2.34375 -22.1875 L 10.140625 -22.1875 C 11.703125 -22.1875 12.992188 -21.9375 14.015625 -21.4375 C 15.046875 -20.9375 15.8125 -20.257812 16.3125 -19.40625 C 16.820312 -18.550781 17.078125 -17.597656 17.078125 -16.546875 C 17.078125 -15.109375 16.691406 -13.976562 15.921875 -13.15625 C 15.148438 -12.332031 14.226562 -11.757812 13.15625 -11.4375 C 13.976562 -11.289062 14.726562 -10.960938 15.40625 -10.453125 C 16.082031 -9.953125 16.613281 -9.320312 17 -8.5625 C 17.394531 -7.800781 17.59375 -6.960938 17.59375 -6.046875 C 17.59375 -4.929688 17.316406 -3.910156 16.765625 -2.984375 C 16.210938 -2.066406 15.394531 -1.335938 14.3125 -0.796875 C 13.238281 -0.265625 11.929688 0 10.390625 0 Z M 5 -12.484375 L 9.953125 -12.484375 C 11.367188 -12.484375 12.457031 -12.816406 13.21875 -13.484375 C 13.976562 -14.148438 14.359375 -15.070312 14.359375 -16.25 C 14.359375 -17.375 13.984375 -18.273438 13.234375 -18.953125 C 12.484375 -19.628906 11.359375 -19.96875 9.859375 -19.96875 L 5 -19.96875 Z M 5 -2.21875 L 10.109375 -2.21875 C 11.628906 -2.21875 12.800781 -2.570312 13.625 -3.28125 C 14.445312 -3.988281 14.859375 -4.976562 14.859375 -6.25 C 14.859375 -7.488281 14.425781 -8.484375 13.5625 -9.234375 C 12.695312 -9.984375 11.523438 -10.359375 10.046875 -10.359375 L 5 -10.359375 Z M 5 -2.21875 "/></g></g></g><g fill="#ffffff" fill-opacity="1"><g transform="translate(224.927831, 198.356583)"><g><path d="M 2.34375 0 L 2.34375 -22.1875 L 9.5 -22.1875 C 11.238281 -22.1875 12.65625 -21.898438 13.75 -21.328125 C 14.851562 -20.753906 15.664062 -19.96875 16.1875 -18.96875 C 16.71875 -17.976562 16.984375 -16.882812 16.984375 -15.6875 C 16.984375 -14.289062 16.609375 -13.03125 15.859375 -11.90625 C 15.109375 -10.789062 13.941406 -10 12.359375 -9.53125 L 17.203125 0 L 14.0625 0 L 9.5625 -9.15625 L 5 -9.15625 L 5 0 Z M 5 -11.25 L 9.3125 -11.25 C 11.019531 -11.25 12.265625 -11.660156 13.046875 -12.484375 C 13.835938 -13.304688 14.234375 -14.363281 14.234375 -15.65625 C 14.234375 -16.96875 13.847656 -18.007812 13.078125 -18.78125 C 12.304688 -19.550781 11.039062 -19.9375 9.28125 -19.9375 L 5 -19.9375 Z M 5 -11.25 "/></g></g></g><g fill="#ffffff" fill-opacity="1"><g transform="translate(248.622966, 198.356583)"><g><path d="M 12.421875 0.375 C 10.242188 0.375 8.335938 -0.101562 6.703125 -1.0625 C 5.066406 -2.019531 3.785156 -3.363281 2.859375 -5.09375 C 1.941406 -6.832031 1.484375 -8.832031 1.484375 -11.09375 C 1.484375 -13.351562 1.941406 -15.34375 2.859375 -17.0625 C 3.785156 -18.78125 5.066406 -20.125 6.703125 -21.09375 C 8.335938 -22.070312 10.242188 -22.5625 12.421875 -22.5625 C 14.617188 -22.5625 16.535156 -22.070312 18.171875 -21.09375 C 19.804688 -20.125 21.078125 -18.78125 21.984375 -17.0625 C 22.898438 -15.34375 23.359375 -13.351562 23.359375 -11.09375 C 23.359375 -8.832031 22.898438 -6.832031 21.984375 -5.09375 C 21.078125 -3.363281 19.804688 -2.019531 18.171875 -1.0625 C 16.535156 -0.101562 14.617188 0.375 12.421875 0.375 Z M 12.421875 -1.96875 C 14.046875 -1.96875 15.472656 -2.332031 16.703125 -3.0625 C 17.941406 -3.789062 18.90625 -4.832031 19.59375 -6.1875 C 20.28125 -7.550781 20.625 -9.1875 20.625 -11.09375 C 20.625 -12.988281 20.28125 -14.613281 19.59375 -15.96875 C 18.90625 -17.320312 17.941406 -18.363281 16.703125 -19.09375 C 15.472656 -19.820312 14.046875 -20.1875 12.421875 -20.1875 C 10.796875 -20.1875 9.363281 -19.820312 8.125 -19.09375 C 6.894531 -18.363281 5.9375 -17.320312 5.25 -15.96875 C 4.5625 -14.613281 4.21875 -12.988281 4.21875 -11.09375 C 4.21875 -9.1875 4.5625 -7.550781 5.25 -6.1875 C 5.9375 -4.832031 6.894531 -3.789062 8.125 -3.0625 C 9.363281 -2.332031 10.796875 -1.96875 12.421875 -1.96875 Z M 12.421875 -1.96875 "/></g></g></g><g fill="#ffffff" fill-opacity="1"><g transform="translate(278.367802, 198.356583)"><g><path d="M 6.90625 0.03125 L 0.828125 -22.1875 L 3.671875 -22.1875 L 8.453125 -3.140625 L 13.90625 -22.1875 L 16.859375 -22.1875 L 22.15625 -3.140625 L 27 -22.1875 L 29.84375 -22.1875 L 23.640625 0 L 20.59375 0 L 15.3125 -18.3125 L 9.890625 0 Z M 6.90625 0.03125 "/></g></g></g><g fill="#ffffff" fill-opacity="1"><g transform="translate(313.908948, 198.356583)"><g><path d="M 2.34375 0 L 2.34375 -22.1875 L 5 -22.1875 L 16.828125 -4.40625 L 16.828125 -22.1875 L 19.484375 -22.1875 L 19.484375 0 L 16.828125 0 L 5 -17.78125 L 5 0 Z M 2.34375 0 "/></g></g></g></svg>